<svg width="219" height="194" viewBox="0 0 219 194" fill="none" xmlns="http://www.w3.org/2000/svg">
<g clip-path="url(#clip0_19_53)">
<path d="M177.938 60.625H164.25V36.375H150.562V60.625H136.875V133.375H150.562V157.625H164.25V133.375H177.938V60.625ZM164.25 121.25H150.562V72.75H164.25V121.25Z" fill="#1D1F22"/>
<path d="M95.8125 48.5H82.125V24.25H68.4375V48.5H54.75V109.125H68.4375V133.375H82.125V109.125H95.8125V48.5ZM82.125 97H68.4375V60.625H82.125V97Z" fill="#1D1F22"/>
<path d="M205.312 181.875H27.375C23.7448 181.875 20.2634 180.598 17.6965 178.324C15.1296 176.05 13.6875 172.966 13.6875 169.75V12.125H27.375V169.75H205.312V181.875Z" fill="#1D1F22"/>
</g>
<defs>
<clipPath id="clip0_19_53">
<rect width="219" height="194" fill="white"/>
</clipPath>
</defs>
</svg>
